%TF.GenerationSoftware,KiCad,Pcbnew,(6.0.4)*%
%TF.CreationDate,2022-11-06T13:58:30+01:00*%
%TF.ProjectId,GSP-1.0,4753502d-312e-4302-9e6b-696361645f70,rev?*%
%TF.SameCoordinates,Original*%
%TF.FileFunction,Paste,Top*%
%TF.FilePolarity,Positive*%
%FSLAX46Y46*%
G04 Gerber Fmt 4.6, Leading zero omitted, Abs format (unit mm)*
G04 Created by KiCad (PCBNEW (6.0.4)) date 2022-11-06 13:58:30*
%MOMM*%
%LPD*%
G01*
G04 APERTURE LIST*
G04 Aperture macros list*
%AMRoundRect*
0 Rectangle with rounded corners*
0 $1 Rounding radius*
0 $2 $3 $4 $5 $6 $7 $8 $9 X,Y pos of 4 corners*
0 Add a 4 corners polygon primitive as box body*
4,1,4,$2,$3,$4,$5,$6,$7,$8,$9,$2,$3,0*
0 Add four circle primitives for the rounded corners*
1,1,$1+$1,$2,$3*
1,1,$1+$1,$4,$5*
1,1,$1+$1,$6,$7*
1,1,$1+$1,$8,$9*
0 Add four rect primitives between the rounded corners*
20,1,$1+$1,$2,$3,$4,$5,0*
20,1,$1+$1,$4,$5,$6,$7,0*
20,1,$1+$1,$6,$7,$8,$9,0*
20,1,$1+$1,$8,$9,$2,$3,0*%
G04 Aperture macros list end*
%ADD10RoundRect,0.250000X-0.475000X0.337500X-0.475000X-0.337500X0.475000X-0.337500X0.475000X0.337500X0*%
%ADD11R,1.000000X2.800000*%
%ADD12R,2.800000X1.000000*%
%ADD13RoundRect,0.250000X0.350000X0.450000X-0.350000X0.450000X-0.350000X-0.450000X0.350000X-0.450000X0*%
%ADD14RoundRect,0.150000X0.587500X0.150000X-0.587500X0.150000X-0.587500X-0.150000X0.587500X-0.150000X0*%
%ADD15RoundRect,0.250000X0.450000X-0.350000X0.450000X0.350000X-0.450000X0.350000X-0.450000X-0.350000X0*%
%ADD16RoundRect,0.250000X-0.350000X-0.450000X0.350000X-0.450000X0.350000X0.450000X-0.350000X0.450000X0*%
%ADD17RoundRect,0.250000X-0.450000X0.350000X-0.450000X-0.350000X0.450000X-0.350000X0.450000X0.350000X0*%
%ADD18RoundRect,0.250000X-0.337500X-0.475000X0.337500X-0.475000X0.337500X0.475000X-0.337500X0.475000X0*%
%ADD19RoundRect,0.250000X0.325000X0.450000X-0.325000X0.450000X-0.325000X-0.450000X0.325000X-0.450000X0*%
G04 APERTURE END LIST*
D10*
%TO.C,C4*%
X120000000Y-114537500D03*
X120000000Y-112462500D03*
%TD*%
D11*
%TO.C,SW5*%
X207000000Y-93100000D03*
X207000000Y-98900000D03*
X203000000Y-98900000D03*
X203000000Y-93100000D03*
%TD*%
D12*
%TO.C,SW6*%
X210350000Y-102250000D03*
X216150000Y-102250000D03*
X210350000Y-106250000D03*
X216150000Y-106250000D03*
%TD*%
D13*
%TO.C,R8*%
X198040000Y-110800000D03*
X200040000Y-110800000D03*
%TD*%
D14*
%TO.C,Q1*%
X196812500Y-119750000D03*
X198687500Y-118800000D03*
X198687500Y-120700000D03*
%TD*%
%TO.C,Q2*%
X196812500Y-125250000D03*
X198687500Y-124300000D03*
X198687500Y-126200000D03*
%TD*%
D11*
%TO.C,SW7*%
X207000000Y-115400000D03*
X207000000Y-109600000D03*
X203000000Y-109600000D03*
X203000000Y-115400000D03*
%TD*%
D15*
%TO.C,R7*%
X79667446Y-103303095D03*
X79667446Y-105303095D03*
%TD*%
D12*
%TO.C,START1*%
X162900000Y-130500000D03*
X157100000Y-130500000D03*
X157100000Y-126500000D03*
X162900000Y-126500000D03*
%TD*%
D16*
%TO.C,R_LED1*%
X186745000Y-130000000D03*
X184745000Y-130000000D03*
%TD*%
D17*
%TO.C,R5*%
X110300000Y-104950000D03*
X110300000Y-102950000D03*
%TD*%
D15*
%TO.C,R1*%
X201950000Y-121500000D03*
X201950000Y-123500000D03*
%TD*%
D18*
%TO.C,C1*%
X193717500Y-119930000D03*
X191642500Y-119930000D03*
%TD*%
D17*
%TO.C,R2*%
X205340000Y-123500000D03*
X205340000Y-121500000D03*
%TD*%
D11*
%TO.C,SW4*%
X97000000Y-115400000D03*
X97000000Y-109600000D03*
X93000000Y-109600000D03*
X93000000Y-115400000D03*
%TD*%
D16*
%TO.C,R11*%
X148106980Y-123493175D03*
X146106980Y-123493175D03*
%TD*%
D13*
%TO.C,R13*%
X151720000Y-114980000D03*
X153720000Y-114980000D03*
%TD*%
D12*
%TO.C,SW2*%
X106150000Y-102250000D03*
X100350000Y-102250000D03*
X100350000Y-106250000D03*
X106150000Y-106250000D03*
%TD*%
D17*
%TO.C,R6*%
X220750000Y-105100000D03*
X220750000Y-103100000D03*
%TD*%
D12*
%TO.C,SELECT1*%
X137100000Y-130500000D03*
X142900000Y-130500000D03*
X142900000Y-126500000D03*
X137100000Y-126500000D03*
%TD*%
%TO.C,SW3*%
X83850000Y-102250000D03*
X89650000Y-102250000D03*
X89650000Y-106250000D03*
X83850000Y-106250000D03*
%TD*%
D16*
%TO.C,R12*%
X153074149Y-123489461D03*
X151074149Y-123489461D03*
%TD*%
%TO.C,R9*%
X96076964Y-119419399D03*
X94076964Y-119419399D03*
%TD*%
D11*
%TO.C,SW1*%
X97000000Y-93100000D03*
X97000000Y-98900000D03*
X93000000Y-93100000D03*
X93000000Y-98900000D03*
%TD*%
D16*
%TO.C,R10*%
X195369235Y-110774011D03*
X193369235Y-110774011D03*
%TD*%
D12*
%TO.C,SW8*%
X193850000Y-102250000D03*
X199650000Y-102250000D03*
X199650000Y-106250000D03*
X193850000Y-106250000D03*
%TD*%
D19*
%TO.C,D_3V3*%
X189989122Y-130000000D03*
X192039122Y-130000000D03*
%TD*%
D16*
%TO.C,R3*%
X96066495Y-88896356D03*
X94066495Y-88896356D03*
%TD*%
M02*
