%TF.GenerationSoftware,KiCad,Pcbnew,(6.0.4)*%
%TF.CreationDate,2022-11-06T13:58:30+01:00*%
%TF.ProjectId,GSP-1.0,4753502d-312e-4302-9e6b-696361645f70,rev?*%
%TF.SameCoordinates,Original*%
%TF.FileFunction,Soldermask,Top*%
%TF.FilePolarity,Negative*%
%FSLAX46Y46*%
G04 Gerber Fmt 4.6, Leading zero omitted, Abs format (unit mm)*
G04 Created by KiCad (PCBNEW (6.0.4)) date 2022-11-06 13:58:30*
%MOMM*%
%LPD*%
G01*
G04 APERTURE LIST*
G04 Aperture macros list*
%AMRoundRect*
0 Rectangle with rounded corners*
0 $1 Rounding radius*
0 $2 $3 $4 $5 $6 $7 $8 $9 X,Y pos of 4 corners*
0 Add a 4 corners polygon primitive as box body*
4,1,4,$2,$3,$4,$5,$6,$7,$8,$9,$2,$3,0*
0 Add four circle primitives for the rounded corners*
1,1,$1+$1,$2,$3*
1,1,$1+$1,$4,$5*
1,1,$1+$1,$6,$7*
1,1,$1+$1,$8,$9*
0 Add four rect primitives between the rounded corners*
20,1,$1+$1,$2,$3,$4,$5,0*
20,1,$1+$1,$4,$5,$6,$7,0*
20,1,$1+$1,$6,$7,$8,$9,0*
20,1,$1+$1,$8,$9,$2,$3,0*%
%AMOutline5P*
0 Free polygon, 5 corners , with rotation*
0 The origin of the aperture is its center*
0 number of corners: always 5*
0 $1 to $10 corner X, Y*
0 $11 Rotation angle, in degrees counterclockwise*
0 create outline with 5 corners*
4,1,5,$1,$2,$3,$4,$5,$6,$7,$8,$9,$10,$1,$2,$11*%
%AMOutline6P*
0 Free polygon, 6 corners , with rotation*
0 The origin of the aperture is its center*
0 number of corners: always 6*
0 $1 to $12 corner X, Y*
0 $13 Rotation angle, in degrees counterclockwise*
0 create outline with 6 corners*
4,1,6,$1,$2,$3,$4,$5,$6,$7,$8,$9,$10,$11,$12,$1,$2,$13*%
%AMOutline7P*
0 Free polygon, 7 corners , with rotation*
0 The origin of the aperture is its center*
0 number of corners: always 7*
0 $1 to $14 corner X, Y*
0 $15 Rotation angle, in degrees counterclockwise*
0 create outline with 7 corners*
4,1,7,$1,$2,$3,$4,$5,$6,$7,$8,$9,$10,$11,$12,$13,$14,$1,$2,$15*%
%AMOutline8P*
0 Free polygon, 8 corners , with rotation*
0 The origin of the aperture is its center*
0 number of corners: always 8*
0 $1 to $16 corner X, Y*
0 $17 Rotation angle, in degrees counterclockwise*
0 create outline with 8 corners*
4,1,8,$1,$2,$3,$4,$5,$6,$7,$8,$9,$10,$11,$12,$13,$14,$15,$16,$1,$2,$17*%
G04 Aperture macros list end*
%ADD10RoundRect,0.250000X-0.475000X0.337500X-0.475000X-0.337500X0.475000X-0.337500X0.475000X0.337500X0*%
%ADD11R,1.000000X2.800000*%
%ADD12R,2.800000X1.000000*%
%ADD13RoundRect,0.250000X0.350000X0.450000X-0.350000X0.450000X-0.350000X-0.450000X0.350000X-0.450000X0*%
%ADD14RoundRect,0.150000X0.587500X0.150000X-0.587500X0.150000X-0.587500X-0.150000X0.587500X-0.150000X0*%
%ADD15R,1.000000X1.000000*%
%ADD16C,0.800000*%
%ADD17C,6.400000*%
%ADD18RoundRect,0.250000X0.450000X-0.350000X0.450000X0.350000X-0.450000X0.350000X-0.450000X-0.350000X0*%
%ADD19RoundRect,0.250000X-0.350000X-0.450000X0.350000X-0.450000X0.350000X0.450000X-0.350000X0.450000X0*%
%ADD20RoundRect,0.250000X-0.450000X0.350000X-0.450000X-0.350000X0.450000X-0.350000X0.450000X0.350000X0*%
%ADD21RoundRect,0.750000X-0.750000X1.250000X-0.750000X-1.250000X0.750000X-1.250000X0.750000X1.250000X0*%
%ADD22C,1.800000*%
%ADD23R,1.800000X1.800000*%
%ADD24C,2.000000*%
%ADD25R,2.000000X2.000000*%
%ADD26C,1.524000*%
%ADD27Outline8P,-0.762000X0.457200X-0.457200X0.762000X0.457200X0.762000X0.762000X0.457200X0.762000X-0.457200X0.457200X-0.762000X-0.457200X-0.762000X-0.762000X-0.457200X0.000000*%
%ADD28C,5.000000*%
%ADD29RoundRect,0.250000X-0.337500X-0.475000X0.337500X-0.475000X0.337500X0.475000X-0.337500X0.475000X0*%
%ADD30O,1.000000X1.000000*%
%ADD31RoundRect,0.250000X0.325000X0.450000X-0.325000X0.450000X-0.325000X-0.450000X0.325000X-0.450000X0*%
%ADD32O,1.000000X1.600000*%
%ADD33O,1.000000X2.100000*%
%ADD34C,0.650000*%
%ADD35C,2.250000*%
G04 APERTURE END LIST*
D10*
%TO.C,C4*%
X120000000Y-114537500D03*
X120000000Y-112462500D03*
%TD*%
D11*
%TO.C,SW5*%
X207000000Y-93100000D03*
X207000000Y-98900000D03*
X203000000Y-98900000D03*
X203000000Y-93100000D03*
%TD*%
D12*
%TO.C,SW6*%
X210350000Y-102250000D03*
X216150000Y-102250000D03*
X210350000Y-106250000D03*
X216150000Y-106250000D03*
%TD*%
D13*
%TO.C,R8*%
X198040000Y-110800000D03*
X200040000Y-110800000D03*
%TD*%
D14*
%TO.C,Q1*%
X196812500Y-119750000D03*
X198687500Y-118800000D03*
X198687500Y-120700000D03*
%TD*%
%TO.C,Q2*%
X196812500Y-125250000D03*
X198687500Y-124300000D03*
X198687500Y-126200000D03*
%TD*%
D15*
%TO.C,J_EN1*%
X192500000Y-81200000D03*
%TD*%
D11*
%TO.C,SW7*%
X207000000Y-115400000D03*
X207000000Y-109600000D03*
X203000000Y-109600000D03*
X203000000Y-115400000D03*
%TD*%
D16*
%TO.C,REF\u002A\u002A*%
X217600000Y-130000000D03*
X220000000Y-127600000D03*
X218302944Y-128302944D03*
X222400000Y-130000000D03*
X220000000Y-132400000D03*
X221697056Y-131697056D03*
X218302944Y-131697056D03*
D17*
X220000000Y-130000000D03*
D16*
X221697056Y-128302944D03*
%TD*%
D18*
%TO.C,R7*%
X79667446Y-103303095D03*
X79667446Y-105303095D03*
%TD*%
D16*
%TO.C,REF\u002A\u002A*%
X220000000Y-82400000D03*
X222400000Y-80000000D03*
X221697056Y-78302944D03*
X221697056Y-81697056D03*
X218302944Y-81697056D03*
X220000000Y-77600000D03*
D17*
X220000000Y-80000000D03*
D16*
X217600000Y-80000000D03*
X218302944Y-78302944D03*
%TD*%
D12*
%TO.C,START1*%
X162900000Y-130500000D03*
X157100000Y-130500000D03*
X157100000Y-126500000D03*
X162900000Y-126500000D03*
%TD*%
D19*
%TO.C,R_LED1*%
X186745000Y-130000000D03*
X184745000Y-130000000D03*
%TD*%
D20*
%TO.C,R5*%
X110300000Y-104950000D03*
X110300000Y-102950000D03*
%TD*%
D21*
%TO.C,Volume2*%
X169500000Y-126700000D03*
X179500000Y-126700000D03*
D22*
X177000000Y-130000000D03*
X174500000Y-130000000D03*
D23*
X172000000Y-130000000D03*
%TD*%
D24*
%TO.C,BZ2*%
X221600000Y-90000000D03*
D25*
X214000000Y-90000000D03*
%TD*%
D18*
%TO.C,R1*%
X201950000Y-121500000D03*
X201950000Y-123500000D03*
%TD*%
D26*
%TO.C,U2*%
X116480000Y-105080000D03*
X116480000Y-100000000D03*
X116480000Y-102540000D03*
X116480000Y-97460000D03*
D27*
X116480000Y-107620000D03*
D26*
X116480000Y-94920000D03*
X116480000Y-92380000D03*
D28*
X184000000Y-80500000D03*
X116000000Y-119500000D03*
X184000000Y-119500000D03*
X116000000Y-80500000D03*
%TD*%
D29*
%TO.C,C1*%
X193717500Y-119930000D03*
X191642500Y-119930000D03*
%TD*%
D20*
%TO.C,R2*%
X205340000Y-123500000D03*
X205340000Y-121500000D03*
%TD*%
D11*
%TO.C,SW4*%
X97000000Y-115400000D03*
X97000000Y-109600000D03*
X93000000Y-109600000D03*
X93000000Y-115400000D03*
%TD*%
D19*
%TO.C,R11*%
X148106980Y-123493175D03*
X146106980Y-123493175D03*
%TD*%
D13*
%TO.C,R13*%
X151720000Y-114980000D03*
X153720000Y-114980000D03*
%TD*%
D12*
%TO.C,SW2*%
X106150000Y-102250000D03*
X100350000Y-102250000D03*
X100350000Y-106250000D03*
X106150000Y-106250000D03*
%TD*%
D20*
%TO.C,R6*%
X220750000Y-105100000D03*
X220750000Y-103100000D03*
%TD*%
D12*
%TO.C,SELECT1*%
X137100000Y-130500000D03*
X142900000Y-130500000D03*
X142900000Y-126500000D03*
X137100000Y-126500000D03*
%TD*%
D21*
%TO.C,Volume1*%
X130500000Y-126700000D03*
X120500000Y-126700000D03*
D22*
X128000000Y-130000000D03*
X125500000Y-130000000D03*
D23*
X123000000Y-130000000D03*
%TD*%
D24*
%TO.C,BZ1*%
X85600000Y-90000000D03*
D25*
X78000000Y-90000000D03*
%TD*%
D12*
%TO.C,SW3*%
X83850000Y-102250000D03*
X89650000Y-102250000D03*
X89650000Y-106250000D03*
X83850000Y-106250000D03*
%TD*%
D19*
%TO.C,R12*%
X153074149Y-123489461D03*
X151074149Y-123489461D03*
%TD*%
D16*
%TO.C,REF\u002A\u002A*%
X81697056Y-131697056D03*
X78302944Y-131697056D03*
D17*
X80000000Y-130000000D03*
D16*
X82400000Y-130000000D03*
X81697056Y-128302944D03*
X77600000Y-130000000D03*
X80000000Y-127600000D03*
X78302944Y-128302944D03*
X80000000Y-132400000D03*
%TD*%
D19*
%TO.C,R9*%
X96076964Y-119419399D03*
X94076964Y-119419399D03*
%TD*%
D16*
%TO.C,REF\u002A\u002A*%
X80000000Y-82400000D03*
X81697056Y-78302944D03*
X77600000Y-80000000D03*
X82400000Y-80000000D03*
X81697056Y-81697056D03*
X80000000Y-77600000D03*
X78302944Y-81697056D03*
D17*
X80000000Y-80000000D03*
D16*
X78302944Y-78302944D03*
%TD*%
D30*
%TO.C,J_UART1*%
X220210000Y-117050000D03*
X220210000Y-115780000D03*
X220210000Y-114510000D03*
X220210000Y-113240000D03*
X220210000Y-111970000D03*
D15*
X220210000Y-110700000D03*
%TD*%
%TO.C,J_IO_1*%
X221360000Y-122050000D03*
%TD*%
D11*
%TO.C,SW1*%
X97000000Y-93100000D03*
X97000000Y-98900000D03*
X93000000Y-93100000D03*
X93000000Y-98900000D03*
%TD*%
D19*
%TO.C,R10*%
X195369235Y-110774011D03*
X193369235Y-110774011D03*
%TD*%
D12*
%TO.C,SW8*%
X193850000Y-102250000D03*
X199650000Y-102250000D03*
X199650000Y-106250000D03*
X193850000Y-106250000D03*
%TD*%
D31*
%TO.C,D_3V3*%
X189989122Y-130000000D03*
X192039122Y-130000000D03*
%TD*%
D19*
%TO.C,R3*%
X96066495Y-88896356D03*
X94066495Y-88896356D03*
%TD*%
D26*
%TO.C,SW_PWR1*%
X99965000Y-81365000D03*
X107885000Y-81365000D03*
%TD*%
D32*
%TO.C,J1*%
X145680000Y-131870000D03*
D33*
X145680000Y-127690000D03*
D32*
X154320000Y-131870000D03*
D33*
X154320000Y-127690000D03*
D34*
X147110000Y-128220000D03*
X152890000Y-128220000D03*
%TD*%
D35*
%TO.C,BT1*%
X123580000Y-105000000D03*
X123580000Y-117700000D03*
%TD*%
M02*
