%TF.GenerationSoftware,KiCad,Pcbnew,(6.0.4)*%
%TF.CreationDate,2022-11-06T13:58:30+01:00*%
%TF.ProjectId,GSP-1.0,4753502d-312e-4302-9e6b-696361645f70,rev?*%
%TF.SameCoordinates,Original*%
%TF.FileFunction,Soldermask,Bot*%
%TF.FilePolarity,Negative*%
%FSLAX46Y46*%
G04 Gerber Fmt 4.6, Leading zero omitted, Abs format (unit mm)*
G04 Created by KiCad (PCBNEW (6.0.4)) date 2022-11-06 13:58:30*
%MOMM*%
%LPD*%
G01*
G04 APERTURE LIST*
G04 Aperture macros list*
%AMRoundRect*
0 Rectangle with rounded corners*
0 $1 Rounding radius*
0 $2 $3 $4 $5 $6 $7 $8 $9 X,Y pos of 4 corners*
0 Add a 4 corners polygon primitive as box body*
4,1,4,$2,$3,$4,$5,$6,$7,$8,$9,$2,$3,0*
0 Add four circle primitives for the rounded corners*
1,1,$1+$1,$2,$3*
1,1,$1+$1,$4,$5*
1,1,$1+$1,$6,$7*
1,1,$1+$1,$8,$9*
0 Add four rect primitives between the rounded corners*
20,1,$1+$1,$2,$3,$4,$5,0*
20,1,$1+$1,$4,$5,$6,$7,0*
20,1,$1+$1,$6,$7,$8,$9,0*
20,1,$1+$1,$8,$9,$2,$3,0*%
%AMOutline5P*
0 Free polygon, 5 corners , with rotation*
0 The origin of the aperture is its center*
0 number of corners: always 5*
0 $1 to $10 corner X, Y*
0 $11 Rotation angle, in degrees counterclockwise*
0 create outline with 5 corners*
4,1,5,$1,$2,$3,$4,$5,$6,$7,$8,$9,$10,$1,$2,$11*%
%AMOutline6P*
0 Free polygon, 6 corners , with rotation*
0 The origin of the aperture is its center*
0 number of corners: always 6*
0 $1 to $12 corner X, Y*
0 $13 Rotation angle, in degrees counterclockwise*
0 create outline with 6 corners*
4,1,6,$1,$2,$3,$4,$5,$6,$7,$8,$9,$10,$11,$12,$1,$2,$13*%
%AMOutline7P*
0 Free polygon, 7 corners , with rotation*
0 The origin of the aperture is its center*
0 number of corners: always 7*
0 $1 to $14 corner X, Y*
0 $15 Rotation angle, in degrees counterclockwise*
0 create outline with 7 corners*
4,1,7,$1,$2,$3,$4,$5,$6,$7,$8,$9,$10,$11,$12,$13,$14,$1,$2,$15*%
%AMOutline8P*
0 Free polygon, 8 corners , with rotation*
0 The origin of the aperture is its center*
0 number of corners: always 8*
0 $1 to $16 corner X, Y*
0 $17 Rotation angle, in degrees counterclockwise*
0 create outline with 8 corners*
4,1,8,$1,$2,$3,$4,$5,$6,$7,$8,$9,$10,$11,$12,$13,$14,$15,$16,$1,$2,$17*%
G04 Aperture macros list end*
%ADD10RoundRect,0.250000X0.337500X0.475000X-0.337500X0.475000X-0.337500X-0.475000X0.337500X-0.475000X0*%
%ADD11R,1.000000X1.000000*%
%ADD12C,0.800000*%
%ADD13C,6.400000*%
%ADD14RoundRect,0.750000X-0.750000X1.250000X-0.750000X-1.250000X0.750000X-1.250000X0.750000X1.250000X0*%
%ADD15C,1.800000*%
%ADD16R,1.800000X1.800000*%
%ADD17C,2.000000*%
%ADD18R,2.000000X2.000000*%
%ADD19C,1.524000*%
%ADD20Outline8P,-0.762000X0.457200X-0.457200X0.762000X0.457200X0.762000X0.762000X0.457200X0.762000X-0.457200X0.457200X-0.762000X-0.457200X-0.762000X-0.762000X-0.457200X0.000000*%
%ADD21C,5.000000*%
%ADD22O,1.000000X1.000000*%
%ADD23RoundRect,0.250000X0.350000X0.450000X-0.350000X0.450000X-0.350000X-0.450000X0.350000X-0.450000X0*%
%ADD24R,1.500000X2.000000*%
%ADD25R,3.800000X2.000000*%
%ADD26RoundRect,0.250000X-0.475000X0.337500X-0.475000X-0.337500X0.475000X-0.337500X0.475000X0.337500X0*%
%ADD27RoundRect,0.250000X0.450000X-0.350000X0.450000X0.350000X-0.450000X0.350000X-0.450000X-0.350000X0*%
%ADD28O,1.000000X1.600000*%
%ADD29O,1.000000X2.100000*%
%ADD30R,0.600000X1.450000*%
%ADD31R,0.300000X1.450000*%
%ADD32C,0.650000*%
%ADD33C,2.250000*%
%ADD34R,1.100000X1.100000*%
%ADD35R,1.500000X0.900000*%
%ADD36R,0.900000X1.500000*%
G04 APERTURE END LIST*
D10*
%TO.C,C5*%
X138962500Y-120000000D03*
X141037500Y-120000000D03*
%TD*%
D11*
%TO.C,J_EN1*%
X192500000Y-81200000D03*
%TD*%
D12*
%TO.C,REF\u002A\u002A*%
X217600000Y-130000000D03*
X220000000Y-127600000D03*
X218302944Y-128302944D03*
X222400000Y-130000000D03*
X220000000Y-132400000D03*
X221697056Y-131697056D03*
X218302944Y-131697056D03*
D13*
X220000000Y-130000000D03*
D12*
X221697056Y-128302944D03*
%TD*%
%TO.C,REF\u002A\u002A*%
X220000000Y-82400000D03*
X222400000Y-80000000D03*
X221697056Y-78302944D03*
X221697056Y-81697056D03*
X218302944Y-81697056D03*
X220000000Y-77600000D03*
D13*
X220000000Y-80000000D03*
D12*
X217600000Y-80000000D03*
X218302944Y-78302944D03*
%TD*%
D14*
%TO.C,Volume2*%
X169500000Y-126700000D03*
X179500000Y-126700000D03*
D15*
X177000000Y-130000000D03*
X174500000Y-130000000D03*
D16*
X172000000Y-130000000D03*
%TD*%
D17*
%TO.C,BZ2*%
X221600000Y-90000000D03*
D18*
X214000000Y-90000000D03*
%TD*%
D19*
%TO.C,U2*%
X116480000Y-105080000D03*
X116480000Y-100000000D03*
X116480000Y-102540000D03*
X116480000Y-97460000D03*
D20*
X116480000Y-107620000D03*
D19*
X116480000Y-94920000D03*
X116480000Y-92380000D03*
D21*
X184000000Y-80500000D03*
X116000000Y-119500000D03*
X184000000Y-119500000D03*
X116000000Y-80500000D03*
%TD*%
D14*
%TO.C,Volume1*%
X130500000Y-126700000D03*
X120500000Y-126700000D03*
D15*
X128000000Y-130000000D03*
X125500000Y-130000000D03*
D16*
X123000000Y-130000000D03*
%TD*%
D17*
%TO.C,BZ1*%
X85600000Y-90000000D03*
D18*
X78000000Y-90000000D03*
%TD*%
D12*
%TO.C,REF\u002A\u002A*%
X81697056Y-131697056D03*
X78302944Y-131697056D03*
D13*
X80000000Y-130000000D03*
D12*
X82400000Y-130000000D03*
X81697056Y-128302944D03*
X77600000Y-130000000D03*
X80000000Y-127600000D03*
X78302944Y-128302944D03*
X80000000Y-132400000D03*
%TD*%
%TO.C,REF\u002A\u002A*%
X80000000Y-82400000D03*
X81697056Y-78302944D03*
X77600000Y-80000000D03*
X82400000Y-80000000D03*
X81697056Y-81697056D03*
X80000000Y-77600000D03*
X78302944Y-81697056D03*
D13*
X80000000Y-80000000D03*
D12*
X78302944Y-78302944D03*
%TD*%
D22*
%TO.C,J_UART1*%
X220210000Y-117050000D03*
X220210000Y-115780000D03*
X220210000Y-114510000D03*
X220210000Y-113240000D03*
X220210000Y-111970000D03*
D11*
X220210000Y-110700000D03*
%TD*%
%TO.C,J_IO_1*%
X221360000Y-122050000D03*
%TD*%
D23*
%TO.C,EN_Pull-up1*%
X197350000Y-80910000D03*
X199350000Y-80910000D03*
%TD*%
D24*
%TO.C,U4*%
X158550000Y-115940000D03*
X160850000Y-115940000D03*
D25*
X160850000Y-109640000D03*
D24*
X163150000Y-115940000D03*
%TD*%
D26*
%TO.C,C2*%
X137000000Y-111989404D03*
X137000000Y-109914404D03*
%TD*%
D23*
%TO.C,R14*%
X145970000Y-114980000D03*
X147970000Y-114980000D03*
%TD*%
D26*
%TO.C,C3*%
X142083426Y-112007416D03*
X142083426Y-109932416D03*
%TD*%
D19*
%TO.C,SW_PWR1*%
X99965000Y-81365000D03*
X107885000Y-81365000D03*
%TD*%
D27*
%TO.C,R4*%
X216100000Y-97040000D03*
X216100000Y-99040000D03*
%TD*%
D28*
%TO.C,J1*%
X145680000Y-131870000D03*
D29*
X145680000Y-127690000D03*
D28*
X154320000Y-131870000D03*
D29*
X154320000Y-127690000D03*
D30*
X153250000Y-126775000D03*
X152450000Y-126775000D03*
D31*
X151750000Y-126775000D03*
X150750000Y-126775000D03*
X149250000Y-126775000D03*
X148250000Y-126775000D03*
D30*
X147550000Y-126775000D03*
X146750000Y-126775000D03*
X146750000Y-126775000D03*
X147550000Y-126775000D03*
D31*
X148750000Y-126775000D03*
X149750000Y-126775000D03*
X150250000Y-126775000D03*
X151250000Y-126775000D03*
D30*
X152450000Y-126775000D03*
X153250000Y-126775000D03*
D32*
X147110000Y-128220000D03*
X152890000Y-128220000D03*
%TD*%
D33*
%TO.C,BT1*%
X123580000Y-105000000D03*
X123580000Y-117700000D03*
%TD*%
D34*
%TO.C,U1*%
X198157708Y-101048038D03*
X199657708Y-101048038D03*
X201157708Y-101048038D03*
X198157708Y-99548038D03*
X199657708Y-99548038D03*
X201157708Y-99548038D03*
X198157708Y-98048038D03*
X199657708Y-98048038D03*
X201157708Y-98048038D03*
D35*
X189717708Y-91498038D03*
X189717708Y-92998038D03*
X189717708Y-94498038D03*
X189717708Y-95998038D03*
X189717708Y-97498038D03*
X189717708Y-98998038D03*
X189717708Y-100498038D03*
X189717708Y-101998038D03*
X189717708Y-103498038D03*
X189717708Y-104998038D03*
X189717708Y-106498038D03*
X189717708Y-107998038D03*
X189717708Y-109498038D03*
X189717708Y-110998038D03*
X189717708Y-112498038D03*
X189717708Y-113998038D03*
D36*
X191717708Y-114748038D03*
X193217708Y-114748038D03*
X194717708Y-114748038D03*
X196217708Y-114748038D03*
X197717708Y-114748038D03*
X199217708Y-114748038D03*
X200717708Y-114748038D03*
X202217708Y-114748038D03*
X203717708Y-114748038D03*
X205217708Y-114748038D03*
D35*
X207217708Y-113998038D03*
X207217708Y-112498038D03*
X207217708Y-110998038D03*
X207217708Y-109498038D03*
X207217708Y-107998038D03*
X207217708Y-106498038D03*
X207217708Y-104998038D03*
X207217708Y-103498038D03*
X207217708Y-101998038D03*
X207217708Y-100498038D03*
X207217708Y-98998038D03*
X207217708Y-97498038D03*
X207217708Y-95998038D03*
X207217708Y-94498038D03*
X207217708Y-92998038D03*
X207217708Y-91498038D03*
%TD*%
D24*
%TO.C,U3*%
X128300000Y-115940000D03*
X130600000Y-115940000D03*
D25*
X130600000Y-109640000D03*
D24*
X132900000Y-115940000D03*
%TD*%
M02*
