%TF.GenerationSoftware,KiCad,Pcbnew,(6.0.4)*%
%TF.CreationDate,2022-11-06T13:58:30+01:00*%
%TF.ProjectId,GSP-1.0,4753502d-312e-4302-9e6b-696361645f70,rev?*%
%TF.SameCoordinates,Original*%
%TF.FileFunction,Legend,Bot*%
%TF.FilePolarity,Positive*%
%FSLAX46Y46*%
G04 Gerber Fmt 4.6, Leading zero omitted, Abs format (unit mm)*
G04 Created by KiCad (PCBNEW (6.0.4)) date 2022-11-06 13:58:30*
%MOMM*%
%LPD*%
G01*
G04 APERTURE LIST*
%ADD10C,0.150000*%
%ADD11C,0.350000*%
%ADD12C,0.120000*%
%ADD13C,0.200000*%
%ADD14C,0.127000*%
G04 APERTURE END LIST*
D10*
%TO.C,C5*%
X140166666Y-118677142D02*
X140214285Y-118724761D01*
X140357142Y-118772380D01*
X140452380Y-118772380D01*
X140595238Y-118724761D01*
X140690476Y-118629523D01*
X140738095Y-118534285D01*
X140785714Y-118343809D01*
X140785714Y-118200952D01*
X140738095Y-118010476D01*
X140690476Y-117915238D01*
X140595238Y-117820000D01*
X140452380Y-117772380D01*
X140357142Y-117772380D01*
X140214285Y-117820000D01*
X140166666Y-117867619D01*
X139261904Y-117772380D02*
X139738095Y-117772380D01*
X139785714Y-118248571D01*
X139738095Y-118200952D01*
X139642857Y-118153333D01*
X139404761Y-118153333D01*
X139309523Y-118200952D01*
X139261904Y-118248571D01*
X139214285Y-118343809D01*
X139214285Y-118581904D01*
X139261904Y-118677142D01*
X139309523Y-118724761D01*
X139404761Y-118772380D01*
X139642857Y-118772380D01*
X139738095Y-118724761D01*
X139785714Y-118677142D01*
X141071428Y-122132380D02*
X141642857Y-122132380D01*
X141357142Y-122132380D02*
X141357142Y-121132380D01*
X141452380Y-121275238D01*
X141547619Y-121370476D01*
X141642857Y-121418095D01*
X140452380Y-121132380D02*
X140357142Y-121132380D01*
X140261904Y-121180000D01*
X140214285Y-121227619D01*
X140166666Y-121322857D01*
X140119047Y-121513333D01*
X140119047Y-121751428D01*
X140166666Y-121941904D01*
X140214285Y-122037142D01*
X140261904Y-122084761D01*
X140357142Y-122132380D01*
X140452380Y-122132380D01*
X140547619Y-122084761D01*
X140595238Y-122037142D01*
X140642857Y-121941904D01*
X140690476Y-121751428D01*
X140690476Y-121513333D01*
X140642857Y-121322857D01*
X140595238Y-121227619D01*
X140547619Y-121180000D01*
X140452380Y-121132380D01*
X139261904Y-121465714D02*
X139261904Y-122132380D01*
X139690476Y-121465714D02*
X139690476Y-121989523D01*
X139642857Y-122084761D01*
X139547619Y-122132380D01*
X139404761Y-122132380D01*
X139309523Y-122084761D01*
X139261904Y-122037142D01*
X138452380Y-121608571D02*
X138785714Y-121608571D01*
X138785714Y-122132380D02*
X138785714Y-121132380D01*
X138309523Y-121132380D01*
%TO.C,EN_Pull-up1*%
X202945238Y-79188571D02*
X202611904Y-79188571D01*
X202469047Y-79712380D02*
X202945238Y-79712380D01*
X202945238Y-78712380D01*
X202469047Y-78712380D01*
X202040476Y-79712380D02*
X202040476Y-78712380D01*
X201469047Y-79712380D01*
X201469047Y-78712380D01*
X201230952Y-79807619D02*
X200469047Y-79807619D01*
X200230952Y-79712380D02*
X200230952Y-78712380D01*
X199850000Y-78712380D01*
X199754761Y-78760000D01*
X199707142Y-78807619D01*
X199659523Y-78902857D01*
X199659523Y-79045714D01*
X199707142Y-79140952D01*
X199754761Y-79188571D01*
X199850000Y-79236190D01*
X200230952Y-79236190D01*
X198802380Y-79045714D02*
X198802380Y-79712380D01*
X199230952Y-79045714D02*
X199230952Y-79569523D01*
X199183333Y-79664761D01*
X199088095Y-79712380D01*
X198945238Y-79712380D01*
X198850000Y-79664761D01*
X198802380Y-79617142D01*
X198183333Y-79712380D02*
X198278571Y-79664761D01*
X198326190Y-79569523D01*
X198326190Y-78712380D01*
X197659523Y-79712380D02*
X197754761Y-79664761D01*
X197802380Y-79569523D01*
X197802380Y-78712380D01*
X197278571Y-79331428D02*
X196516666Y-79331428D01*
X195611904Y-79045714D02*
X195611904Y-79712380D01*
X196040476Y-79045714D02*
X196040476Y-79569523D01*
X195992857Y-79664761D01*
X195897619Y-79712380D01*
X195754761Y-79712380D01*
X195659523Y-79664761D01*
X195611904Y-79617142D01*
X195135714Y-79045714D02*
X195135714Y-80045714D01*
X195135714Y-79093333D02*
X195040476Y-79045714D01*
X194850000Y-79045714D01*
X194754761Y-79093333D01*
X194707142Y-79140952D01*
X194659523Y-79236190D01*
X194659523Y-79521904D01*
X194707142Y-79617142D01*
X194754761Y-79664761D01*
X194850000Y-79712380D01*
X195040476Y-79712380D01*
X195135714Y-79664761D01*
X193707142Y-79712380D02*
X194278571Y-79712380D01*
X193992857Y-79712380D02*
X193992857Y-78712380D01*
X194088095Y-78855238D01*
X194183333Y-78950476D01*
X194278571Y-78998095D01*
X199040476Y-83012380D02*
X199611904Y-83012380D01*
X199326190Y-83012380D02*
X199326190Y-82012380D01*
X199421428Y-82155238D01*
X199516666Y-82250476D01*
X199611904Y-82298095D01*
X198421428Y-82012380D02*
X198326190Y-82012380D01*
X198230952Y-82060000D01*
X198183333Y-82107619D01*
X198135714Y-82202857D01*
X198088095Y-82393333D01*
X198088095Y-82631428D01*
X198135714Y-82821904D01*
X198183333Y-82917142D01*
X198230952Y-82964761D01*
X198326190Y-83012380D01*
X198421428Y-83012380D01*
X198516666Y-82964761D01*
X198564285Y-82917142D01*
X198611904Y-82821904D01*
X198659523Y-82631428D01*
X198659523Y-82393333D01*
X198611904Y-82202857D01*
X198564285Y-82107619D01*
X198516666Y-82060000D01*
X198421428Y-82012380D01*
X197659523Y-83012380D02*
X197659523Y-82012380D01*
X197088095Y-83012380D02*
X197516666Y-82440952D01*
X197088095Y-82012380D02*
X197659523Y-82583809D01*
%TO.C,U4*%
X164802380Y-112028095D02*
X165611904Y-112028095D01*
X165707142Y-112075714D01*
X165754761Y-112123333D01*
X165802380Y-112218571D01*
X165802380Y-112409047D01*
X165754761Y-112504285D01*
X165707142Y-112551904D01*
X165611904Y-112599523D01*
X164802380Y-112599523D01*
X165135714Y-113504285D02*
X165802380Y-113504285D01*
X164754761Y-113266190D02*
X165469047Y-113028095D01*
X165469047Y-113647142D01*
X156516666Y-108361428D02*
X156516666Y-108837619D01*
X156802380Y-108266190D02*
X155802380Y-108599523D01*
X156802380Y-108932857D01*
X155802380Y-109170952D02*
X155802380Y-109837619D01*
X156802380Y-109170952D01*
X156802380Y-109837619D01*
X156802380Y-110742380D02*
X156802380Y-110170952D01*
X156802380Y-110456666D02*
X155802380Y-110456666D01*
X155945238Y-110361428D01*
X156040476Y-110266190D01*
X156088095Y-110170952D01*
X156802380Y-111694761D02*
X156802380Y-111123333D01*
X156802380Y-111409047D02*
X155802380Y-111409047D01*
X155945238Y-111313809D01*
X156040476Y-111218571D01*
X156088095Y-111123333D01*
X156802380Y-112647142D02*
X156802380Y-112075714D01*
X156802380Y-112361428D02*
X155802380Y-112361428D01*
X155945238Y-112266190D01*
X156040476Y-112170952D01*
X156088095Y-112075714D01*
X155802380Y-112980476D02*
X155802380Y-113647142D01*
X156802380Y-113218571D01*
X156421428Y-114028095D02*
X156421428Y-114790000D01*
X155802380Y-115170952D02*
X155802380Y-115790000D01*
X156183333Y-115456666D01*
X156183333Y-115599523D01*
X156230952Y-115694761D01*
X156278571Y-115742380D01*
X156373809Y-115790000D01*
X156611904Y-115790000D01*
X156707142Y-115742380D01*
X156754761Y-115694761D01*
X156802380Y-115599523D01*
X156802380Y-115313809D01*
X156754761Y-115218571D01*
X156707142Y-115170952D01*
X156707142Y-116218571D02*
X156754761Y-116266190D01*
X156802380Y-116218571D01*
X156754761Y-116170952D01*
X156707142Y-116218571D01*
X156802380Y-116218571D01*
X155802380Y-116599523D02*
X155802380Y-117218571D01*
X156183333Y-116885238D01*
X156183333Y-117028095D01*
X156230952Y-117123333D01*
X156278571Y-117170952D01*
X156373809Y-117218571D01*
X156611904Y-117218571D01*
X156707142Y-117170952D01*
X156754761Y-117123333D01*
X156802380Y-117028095D01*
X156802380Y-116742380D01*
X156754761Y-116647142D01*
X156707142Y-116599523D01*
%TO.C,C2*%
X135677142Y-110785237D02*
X135724761Y-110737618D01*
X135772380Y-110594761D01*
X135772380Y-110499523D01*
X135724761Y-110356665D01*
X135629523Y-110261427D01*
X135534285Y-110213808D01*
X135343809Y-110166189D01*
X135200952Y-110166189D01*
X135010476Y-110213808D01*
X134915238Y-110261427D01*
X134820000Y-110356665D01*
X134772380Y-110499523D01*
X134772380Y-110594761D01*
X134820000Y-110737618D01*
X134867619Y-110785237D01*
X134867619Y-111166189D02*
X134820000Y-111213808D01*
X134772380Y-111309046D01*
X134772380Y-111547142D01*
X134820000Y-111642380D01*
X134867619Y-111689999D01*
X134962857Y-111737618D01*
X135058095Y-111737618D01*
X135200952Y-111689999D01*
X135772380Y-111118570D01*
X135772380Y-111737618D01*
X138227619Y-109309046D02*
X138180000Y-109356665D01*
X138132380Y-109451904D01*
X138132380Y-109689999D01*
X138180000Y-109785237D01*
X138227619Y-109832856D01*
X138322857Y-109880475D01*
X138418095Y-109880475D01*
X138560952Y-109832856D01*
X139132380Y-109261427D01*
X139132380Y-109880475D01*
X138227619Y-110261427D02*
X138180000Y-110309046D01*
X138132380Y-110404284D01*
X138132380Y-110642380D01*
X138180000Y-110737618D01*
X138227619Y-110785237D01*
X138322857Y-110832856D01*
X138418095Y-110832856D01*
X138560952Y-110785237D01*
X139132380Y-110213808D01*
X139132380Y-110832856D01*
X138465714Y-111689999D02*
X139132380Y-111689999D01*
X138465714Y-111261427D02*
X138989523Y-111261427D01*
X139084761Y-111309046D01*
X139132380Y-111404284D01*
X139132380Y-111547142D01*
X139084761Y-111642380D01*
X139037142Y-111689999D01*
X138608571Y-112499523D02*
X138608571Y-112166189D01*
X139132380Y-112166189D02*
X138132380Y-112166189D01*
X138132380Y-112642380D01*
%TO.C,R14*%
X147612857Y-113782380D02*
X147946190Y-113306190D01*
X148184285Y-113782380D02*
X148184285Y-112782380D01*
X147803333Y-112782380D01*
X147708095Y-112830000D01*
X147660476Y-112877619D01*
X147612857Y-112972857D01*
X147612857Y-113115714D01*
X147660476Y-113210952D01*
X147708095Y-113258571D01*
X147803333Y-113306190D01*
X148184285Y-113306190D01*
X146660476Y-113782380D02*
X147231904Y-113782380D01*
X146946190Y-113782380D02*
X146946190Y-112782380D01*
X147041428Y-112925238D01*
X147136666Y-113020476D01*
X147231904Y-113068095D01*
X145803333Y-113115714D02*
X145803333Y-113782380D01*
X146041428Y-112734761D02*
X146279523Y-113449047D01*
X145660476Y-113449047D01*
X147946190Y-116082380D02*
X148422380Y-116082380D01*
X148470000Y-116558571D01*
X148422380Y-116510952D01*
X148327142Y-116463333D01*
X148089047Y-116463333D01*
X147993809Y-116510952D01*
X147946190Y-116558571D01*
X147898571Y-116653809D01*
X147898571Y-116891904D01*
X147946190Y-116987142D01*
X147993809Y-117034761D01*
X148089047Y-117082380D01*
X148327142Y-117082380D01*
X148422380Y-117034761D01*
X148470000Y-116987142D01*
X147470000Y-116987142D02*
X147422380Y-117034761D01*
X147470000Y-117082380D01*
X147517619Y-117034761D01*
X147470000Y-116987142D01*
X147470000Y-117082380D01*
X146470000Y-117082380D02*
X147041428Y-117082380D01*
X146755714Y-117082380D02*
X146755714Y-116082380D01*
X146850952Y-116225238D01*
X146946190Y-116320476D01*
X147041428Y-116368095D01*
X146041428Y-117082380D02*
X146041428Y-116082380D01*
X145470000Y-117082380D02*
X145898571Y-116510952D01*
X145470000Y-116082380D02*
X146041428Y-116653809D01*
%TO.C,C3*%
X140760568Y-110803249D02*
X140808187Y-110755630D01*
X140855806Y-110612773D01*
X140855806Y-110517535D01*
X140808187Y-110374677D01*
X140712949Y-110279439D01*
X140617711Y-110231820D01*
X140427235Y-110184201D01*
X140284378Y-110184201D01*
X140093902Y-110231820D01*
X139998664Y-110279439D01*
X139903426Y-110374677D01*
X139855806Y-110517535D01*
X139855806Y-110612773D01*
X139903426Y-110755630D01*
X139951045Y-110803249D01*
X139855806Y-111136582D02*
X139855806Y-111755630D01*
X140236759Y-111422296D01*
X140236759Y-111565154D01*
X140284378Y-111660392D01*
X140331997Y-111708011D01*
X140427235Y-111755630D01*
X140665330Y-111755630D01*
X140760568Y-111708011D01*
X140808187Y-111660392D01*
X140855806Y-111565154D01*
X140855806Y-111279439D01*
X140808187Y-111184201D01*
X140760568Y-111136582D01*
X143215806Y-109327058D02*
X143215806Y-109422296D01*
X143263426Y-109517535D01*
X143311045Y-109565154D01*
X143406283Y-109612773D01*
X143596759Y-109660392D01*
X143834854Y-109660392D01*
X144025330Y-109612773D01*
X144120568Y-109565154D01*
X144168187Y-109517535D01*
X144215806Y-109422296D01*
X144215806Y-109327058D01*
X144168187Y-109231820D01*
X144120568Y-109184201D01*
X144025330Y-109136582D01*
X143834854Y-109088963D01*
X143596759Y-109088963D01*
X143406283Y-109136582D01*
X143311045Y-109184201D01*
X143263426Y-109231820D01*
X143215806Y-109327058D01*
X144120568Y-110088963D02*
X144168187Y-110136582D01*
X144215806Y-110088963D01*
X144168187Y-110041344D01*
X144120568Y-110088963D01*
X144215806Y-110088963D01*
X144215806Y-111088963D02*
X144215806Y-110517535D01*
X144215806Y-110803249D02*
X143215806Y-110803249D01*
X143358664Y-110708011D01*
X143453902Y-110612773D01*
X143501521Y-110517535D01*
X143549140Y-111946106D02*
X144215806Y-111946106D01*
X143549140Y-111517535D02*
X144072949Y-111517535D01*
X144168187Y-111565154D01*
X144215806Y-111660392D01*
X144215806Y-111803249D01*
X144168187Y-111898487D01*
X144120568Y-111946106D01*
X143691997Y-112755630D02*
X143691997Y-112422296D01*
X144215806Y-112422296D02*
X143215806Y-112422296D01*
X143215806Y-112898487D01*
%TO.C,SW_PWR1*%
X102902650Y-85912245D02*
X102759793Y-85959864D01*
X102521697Y-85959864D01*
X102426459Y-85912245D01*
X102378840Y-85864626D01*
X102331221Y-85769388D01*
X102331221Y-85674150D01*
X102378840Y-85578912D01*
X102426459Y-85531293D01*
X102521697Y-85483674D01*
X102712174Y-85436055D01*
X102807412Y-85388436D01*
X102855031Y-85340817D01*
X102902650Y-85245579D01*
X102902650Y-85150341D01*
X102855031Y-85055103D01*
X102807412Y-85007484D01*
X102712174Y-84959864D01*
X102474078Y-84959864D01*
X102331221Y-85007484D01*
X101997888Y-84959864D02*
X101759793Y-85959864D01*
X101569316Y-85245579D01*
X101378840Y-85959864D01*
X101140745Y-84959864D01*
X100997888Y-86055103D02*
X100235983Y-86055103D01*
X99997888Y-85959864D02*
X99997888Y-84959864D01*
X99616936Y-84959864D01*
X99521697Y-85007484D01*
X99474078Y-85055103D01*
X99426459Y-85150341D01*
X99426459Y-85293198D01*
X99474078Y-85388436D01*
X99521697Y-85436055D01*
X99616936Y-85483674D01*
X99997888Y-85483674D01*
X99093126Y-84959864D02*
X98855031Y-85959864D01*
X98664555Y-85245579D01*
X98474078Y-85959864D01*
X98235983Y-84959864D01*
X97283602Y-85959864D02*
X97616936Y-85483674D01*
X97855031Y-85959864D02*
X97855031Y-84959864D01*
X97474078Y-84959864D01*
X97378840Y-85007484D01*
X97331221Y-85055103D01*
X97283602Y-85150341D01*
X97283602Y-85293198D01*
X97331221Y-85388436D01*
X97378840Y-85436055D01*
X97474078Y-85483674D01*
X97855031Y-85483674D01*
X96331221Y-85959864D02*
X96902650Y-85959864D01*
X96616936Y-85959864D02*
X96616936Y-84959864D01*
X96712174Y-85102722D01*
X96807412Y-85197960D01*
X96902650Y-85245579D01*
X102688364Y-87412245D02*
X102545507Y-87459864D01*
X102307412Y-87459864D01*
X102212174Y-87412245D01*
X102164555Y-87364626D01*
X102116936Y-87269388D01*
X102116936Y-87174150D01*
X102164555Y-87078912D01*
X102212174Y-87031293D01*
X102307412Y-86983674D01*
X102497888Y-86936055D01*
X102593126Y-86888436D01*
X102640745Y-86840817D01*
X102688364Y-86745579D01*
X102688364Y-86650341D01*
X102640745Y-86555103D01*
X102593126Y-86507484D01*
X102497888Y-86459864D01*
X102259793Y-86459864D01*
X102116936Y-86507484D01*
X101783602Y-86459864D02*
X101545507Y-87459864D01*
X101355031Y-86745579D01*
X101164555Y-87459864D01*
X100926459Y-86459864D01*
X100783602Y-87555103D02*
X100021697Y-87555103D01*
X99831221Y-87412245D02*
X99688364Y-87459864D01*
X99450269Y-87459864D01*
X99355031Y-87412245D01*
X99307412Y-87364626D01*
X99259793Y-87269388D01*
X99259793Y-87174150D01*
X99307412Y-87078912D01*
X99355031Y-87031293D01*
X99450269Y-86983674D01*
X99640745Y-86936055D01*
X99735983Y-86888436D01*
X99783602Y-86840817D01*
X99831221Y-86745579D01*
X99831221Y-86650341D01*
X99783602Y-86555103D01*
X99735983Y-86507484D01*
X99640745Y-86459864D01*
X99402650Y-86459864D01*
X99259793Y-86507484D01*
X98831221Y-87459864D02*
X98831221Y-86459864D01*
X98450269Y-86459864D01*
X98355031Y-86507484D01*
X98307412Y-86555103D01*
X98259793Y-86650341D01*
X98259793Y-86793198D01*
X98307412Y-86888436D01*
X98355031Y-86936055D01*
X98450269Y-86983674D01*
X98831221Y-86983674D01*
X97878840Y-87412245D02*
X97735983Y-87459864D01*
X97497888Y-87459864D01*
X97402650Y-87412245D01*
X97355031Y-87364626D01*
X97307412Y-87269388D01*
X97307412Y-87174150D01*
X97355031Y-87078912D01*
X97402650Y-87031293D01*
X97497888Y-86983674D01*
X97688364Y-86936055D01*
X97783602Y-86888436D01*
X97831221Y-86840817D01*
X97878840Y-86745579D01*
X97878840Y-86650341D01*
X97831221Y-86555103D01*
X97783602Y-86507484D01*
X97688364Y-86459864D01*
X97450269Y-86459864D01*
X97307412Y-86507484D01*
X97021697Y-86459864D02*
X96450269Y-86459864D01*
X96735983Y-87459864D02*
X96735983Y-86459864D01*
%TO.C,R4*%
X218202380Y-97873333D02*
X217726190Y-97540000D01*
X218202380Y-97301904D02*
X217202380Y-97301904D01*
X217202380Y-97682857D01*
X217250000Y-97778095D01*
X217297619Y-97825714D01*
X217392857Y-97873333D01*
X217535714Y-97873333D01*
X217630952Y-97825714D01*
X217678571Y-97778095D01*
X217726190Y-97682857D01*
X217726190Y-97301904D01*
X217535714Y-98730476D02*
X218202380Y-98730476D01*
X217154761Y-98492380D02*
X217869047Y-98254285D01*
X217869047Y-98873333D01*
X214902380Y-97349523D02*
X214902380Y-96778095D01*
X214902380Y-97063809D02*
X213902380Y-97063809D01*
X214045238Y-96968571D01*
X214140476Y-96873333D01*
X214188095Y-96778095D01*
X213902380Y-97968571D02*
X213902380Y-98063809D01*
X213950000Y-98159047D01*
X213997619Y-98206666D01*
X214092857Y-98254285D01*
X214283333Y-98301904D01*
X214521428Y-98301904D01*
X214711904Y-98254285D01*
X214807142Y-98206666D01*
X214854761Y-98159047D01*
X214902380Y-98063809D01*
X214902380Y-97968571D01*
X214854761Y-97873333D01*
X214807142Y-97825714D01*
X214711904Y-97778095D01*
X214521428Y-97730476D01*
X214283333Y-97730476D01*
X214092857Y-97778095D01*
X213997619Y-97825714D01*
X213950000Y-97873333D01*
X213902380Y-97968571D01*
X214902380Y-98730476D02*
X213902380Y-98730476D01*
X214902380Y-99301904D02*
X214330952Y-98873333D01*
X213902380Y-99301904D02*
X214473809Y-98730476D01*
%TO.C,J1*%
X150333333Y-124627380D02*
X150333333Y-125341666D01*
X150380952Y-125484523D01*
X150476190Y-125579761D01*
X150619047Y-125627380D01*
X150714285Y-125627380D01*
X149333333Y-125627380D02*
X149904761Y-125627380D01*
X149619047Y-125627380D02*
X149619047Y-124627380D01*
X149714285Y-124770238D01*
X149809523Y-124865476D01*
X149904761Y-124913095D01*
X159690476Y-135372380D02*
X159690476Y-136181904D01*
X159642857Y-136277142D01*
X159595238Y-136324761D01*
X159500000Y-136372380D01*
X159309523Y-136372380D01*
X159214285Y-136324761D01*
X159166666Y-136277142D01*
X159119047Y-136181904D01*
X159119047Y-135372380D01*
X158690476Y-136324761D02*
X158547619Y-136372380D01*
X158309523Y-136372380D01*
X158214285Y-136324761D01*
X158166666Y-136277142D01*
X158119047Y-136181904D01*
X158119047Y-136086666D01*
X158166666Y-135991428D01*
X158214285Y-135943809D01*
X158309523Y-135896190D01*
X158500000Y-135848571D01*
X158595238Y-135800952D01*
X158642857Y-135753333D01*
X158690476Y-135658095D01*
X158690476Y-135562857D01*
X158642857Y-135467619D01*
X158595238Y-135420000D01*
X158500000Y-135372380D01*
X158261904Y-135372380D01*
X158119047Y-135420000D01*
X157357142Y-135848571D02*
X157214285Y-135896190D01*
X157166666Y-135943809D01*
X157119047Y-136039047D01*
X157119047Y-136181904D01*
X157166666Y-136277142D01*
X157214285Y-136324761D01*
X157309523Y-136372380D01*
X157690476Y-136372380D01*
X157690476Y-135372380D01*
X157357142Y-135372380D01*
X157261904Y-135420000D01*
X157214285Y-135467619D01*
X157166666Y-135562857D01*
X157166666Y-135658095D01*
X157214285Y-135753333D01*
X157261904Y-135800952D01*
X157357142Y-135848571D01*
X157690476Y-135848571D01*
X156928571Y-136467619D02*
X156166666Y-136467619D01*
X155357142Y-136277142D02*
X155404761Y-136324761D01*
X155547619Y-136372380D01*
X155642857Y-136372380D01*
X155785714Y-136324761D01*
X155880952Y-136229523D01*
X155928571Y-136134285D01*
X155976190Y-135943809D01*
X155976190Y-135800952D01*
X155928571Y-135610476D01*
X155880952Y-135515238D01*
X155785714Y-135420000D01*
X155642857Y-135372380D01*
X155547619Y-135372380D01*
X155404761Y-135420000D01*
X155357142Y-135467619D01*
X155166666Y-136467619D02*
X154404761Y-136467619D01*
X153595238Y-136372380D02*
X153928571Y-135896190D01*
X154166666Y-136372380D02*
X154166666Y-135372380D01*
X153785714Y-135372380D01*
X153690476Y-135420000D01*
X153642857Y-135467619D01*
X153595238Y-135562857D01*
X153595238Y-135705714D01*
X153642857Y-135800952D01*
X153690476Y-135848571D01*
X153785714Y-135896190D01*
X154166666Y-135896190D01*
X152785714Y-136324761D02*
X152880952Y-136372380D01*
X153071428Y-136372380D01*
X153166666Y-136324761D01*
X153214285Y-136229523D01*
X153214285Y-135848571D01*
X153166666Y-135753333D01*
X153071428Y-135705714D01*
X152880952Y-135705714D01*
X152785714Y-135753333D01*
X152738095Y-135848571D01*
X152738095Y-135943809D01*
X153214285Y-136039047D01*
X151880952Y-136324761D02*
X151976190Y-136372380D01*
X152166666Y-136372380D01*
X152261904Y-136324761D01*
X152309523Y-136277142D01*
X152357142Y-136181904D01*
X152357142Y-135896190D01*
X152309523Y-135800952D01*
X152261904Y-135753333D01*
X152166666Y-135705714D01*
X151976190Y-135705714D01*
X151880952Y-135753333D01*
X151071428Y-136324761D02*
X151166666Y-136372380D01*
X151357142Y-136372380D01*
X151452380Y-136324761D01*
X151500000Y-136229523D01*
X151500000Y-135848571D01*
X151452380Y-135753333D01*
X151357142Y-135705714D01*
X151166666Y-135705714D01*
X151071428Y-135753333D01*
X151023809Y-135848571D01*
X151023809Y-135943809D01*
X151500000Y-136039047D01*
X150595238Y-135705714D02*
X150595238Y-136705714D01*
X150595238Y-135753333D02*
X150500000Y-135705714D01*
X150309523Y-135705714D01*
X150214285Y-135753333D01*
X150166666Y-135800952D01*
X150119047Y-135896190D01*
X150119047Y-136181904D01*
X150166666Y-136277142D01*
X150214285Y-136324761D01*
X150309523Y-136372380D01*
X150500000Y-136372380D01*
X150595238Y-136324761D01*
X149833333Y-135705714D02*
X149452380Y-135705714D01*
X149690476Y-135372380D02*
X149690476Y-136229523D01*
X149642857Y-136324761D01*
X149547619Y-136372380D01*
X149452380Y-136372380D01*
X148690476Y-136372380D02*
X148690476Y-135848571D01*
X148738095Y-135753333D01*
X148833333Y-135705714D01*
X149023809Y-135705714D01*
X149119047Y-135753333D01*
X148690476Y-136324761D02*
X148785714Y-136372380D01*
X149023809Y-136372380D01*
X149119047Y-136324761D01*
X149166666Y-136229523D01*
X149166666Y-136134285D01*
X149119047Y-136039047D01*
X149023809Y-135991428D01*
X148785714Y-135991428D01*
X148690476Y-135943809D01*
X147785714Y-136324761D02*
X147880952Y-136372380D01*
X148071428Y-136372380D01*
X148166666Y-136324761D01*
X148214285Y-136277142D01*
X148261904Y-136181904D01*
X148261904Y-135896190D01*
X148214285Y-135800952D01*
X148166666Y-135753333D01*
X148071428Y-135705714D01*
X147880952Y-135705714D01*
X147785714Y-135753333D01*
X147214285Y-136372380D02*
X147309523Y-136324761D01*
X147357142Y-136229523D01*
X147357142Y-135372380D01*
X146452380Y-136324761D02*
X146547619Y-136372380D01*
X146738095Y-136372380D01*
X146833333Y-136324761D01*
X146880952Y-136229523D01*
X146880952Y-135848571D01*
X146833333Y-135753333D01*
X146738095Y-135705714D01*
X146547619Y-135705714D01*
X146452380Y-135753333D01*
X146404761Y-135848571D01*
X146404761Y-135943809D01*
X146880952Y-136039047D01*
X146214285Y-136467619D02*
X145452380Y-136467619D01*
X145214285Y-135372380D02*
X145214285Y-136181904D01*
X145166666Y-136277142D01*
X145119047Y-136324761D01*
X145023809Y-136372380D01*
X144833333Y-136372380D01*
X144738095Y-136324761D01*
X144690476Y-136277142D01*
X144642857Y-136181904D01*
X144642857Y-135372380D01*
X144214285Y-136324761D02*
X144071428Y-136372380D01*
X143833333Y-136372380D01*
X143738095Y-136324761D01*
X143690476Y-136277142D01*
X143642857Y-136181904D01*
X143642857Y-136086666D01*
X143690476Y-135991428D01*
X143738095Y-135943809D01*
X143833333Y-135896190D01*
X144023809Y-135848571D01*
X144119047Y-135800952D01*
X144166666Y-135753333D01*
X144214285Y-135658095D01*
X144214285Y-135562857D01*
X144166666Y-135467619D01*
X144119047Y-135420000D01*
X144023809Y-135372380D01*
X143785714Y-135372380D01*
X143642857Y-135420000D01*
X142880952Y-135848571D02*
X142738095Y-135896190D01*
X142690476Y-135943809D01*
X142642857Y-136039047D01*
X142642857Y-136181904D01*
X142690476Y-136277142D01*
X142738095Y-136324761D01*
X142833333Y-136372380D01*
X143214285Y-136372380D01*
X143214285Y-135372380D01*
X142880952Y-135372380D01*
X142785714Y-135420000D01*
X142738095Y-135467619D01*
X142690476Y-135562857D01*
X142690476Y-135658095D01*
X142738095Y-135753333D01*
X142785714Y-135800952D01*
X142880952Y-135848571D01*
X143214285Y-135848571D01*
X142261904Y-135467619D02*
X142214285Y-135420000D01*
X142119047Y-135372380D01*
X141880952Y-135372380D01*
X141785714Y-135420000D01*
X141738095Y-135467619D01*
X141690476Y-135562857D01*
X141690476Y-135658095D01*
X141738095Y-135800952D01*
X142309523Y-136372380D01*
X141690476Y-136372380D01*
X141261904Y-136277142D02*
X141214285Y-136324761D01*
X141261904Y-136372380D01*
X141309523Y-136324761D01*
X141261904Y-136277142D01*
X141261904Y-136372380D01*
X140595238Y-135372380D02*
X140500000Y-135372380D01*
X140404761Y-135420000D01*
X140357142Y-135467619D01*
X140309523Y-135562857D01*
X140261904Y-135753333D01*
X140261904Y-135991428D01*
X140309523Y-136181904D01*
X140357142Y-136277142D01*
X140404761Y-136324761D01*
X140500000Y-136372380D01*
X140595238Y-136372380D01*
X140690476Y-136324761D01*
X140738095Y-136277142D01*
X140785714Y-136181904D01*
X140833333Y-135991428D01*
X140833333Y-135753333D01*
X140785714Y-135562857D01*
X140738095Y-135467619D01*
X140690476Y-135420000D01*
X140595238Y-135372380D01*
%TO.C,BT1*%
X150785714Y-99428571D02*
X150642857Y-99476190D01*
X150595238Y-99523809D01*
X150547619Y-99619047D01*
X150547619Y-99761904D01*
X150595238Y-99857142D01*
X150642857Y-99904761D01*
X150738095Y-99952380D01*
X151119047Y-99952380D01*
X151119047Y-98952380D01*
X150785714Y-98952380D01*
X150690476Y-99000000D01*
X150642857Y-99047619D01*
X150595238Y-99142857D01*
X150595238Y-99238095D01*
X150642857Y-99333333D01*
X150690476Y-99380952D01*
X150785714Y-99428571D01*
X151119047Y-99428571D01*
X150261904Y-98952380D02*
X149690476Y-98952380D01*
X149976190Y-99952380D02*
X149976190Y-98952380D01*
X148833333Y-99952380D02*
X149404761Y-99952380D01*
X149119047Y-99952380D02*
X149119047Y-98952380D01*
X149214285Y-99095238D01*
X149309523Y-99190476D01*
X149404761Y-99238095D01*
D11*
X158380952Y-105857142D02*
X158095238Y-105952380D01*
X158000000Y-106047619D01*
X157904761Y-106238095D01*
X157904761Y-106523809D01*
X158000000Y-106714285D01*
X158095238Y-106809523D01*
X158285714Y-106904761D01*
X159047619Y-106904761D01*
X159047619Y-104904761D01*
X158380952Y-104904761D01*
X158190476Y-105000000D01*
X158095238Y-105095238D01*
X158000000Y-105285714D01*
X158000000Y-105476190D01*
X158095238Y-105666666D01*
X158190476Y-105761904D01*
X158380952Y-105857142D01*
X159047619Y-105857142D01*
X156190476Y-106904761D02*
X156190476Y-105857142D01*
X156285714Y-105666666D01*
X156476190Y-105571428D01*
X156857142Y-105571428D01*
X157047619Y-105666666D01*
X156190476Y-106809523D02*
X156380952Y-106904761D01*
X156857142Y-106904761D01*
X157047619Y-106809523D01*
X157142857Y-106619047D01*
X157142857Y-106428571D01*
X157047619Y-106238095D01*
X156857142Y-106142857D01*
X156380952Y-106142857D01*
X156190476Y-106047619D01*
X155523809Y-105571428D02*
X154761904Y-105571428D01*
X155238095Y-104904761D02*
X155238095Y-106619047D01*
X155142857Y-106809523D01*
X154952380Y-106904761D01*
X154761904Y-106904761D01*
X154380952Y-105571428D02*
X153619047Y-105571428D01*
X154095238Y-104904761D02*
X154095238Y-106619047D01*
X154000000Y-106809523D01*
X153809523Y-106904761D01*
X153619047Y-106904761D01*
X152190476Y-106809523D02*
X152380952Y-106904761D01*
X152761904Y-106904761D01*
X152952380Y-106809523D01*
X153047619Y-106619047D01*
X153047619Y-105857142D01*
X152952380Y-105666666D01*
X152761904Y-105571428D01*
X152380952Y-105571428D01*
X152190476Y-105666666D01*
X152095238Y-105857142D01*
X152095238Y-106047619D01*
X153047619Y-106238095D01*
X151238095Y-106904761D02*
X151238095Y-105571428D01*
X151238095Y-105952380D02*
X151142857Y-105761904D01*
X151047619Y-105666666D01*
X150857142Y-105571428D01*
X150666666Y-105571428D01*
X150190476Y-105571428D02*
X149714285Y-106904761D01*
X149238095Y-105571428D02*
X149714285Y-106904761D01*
X149904761Y-107380952D01*
X150000000Y-107476190D01*
X150190476Y-107571428D01*
X148952380Y-107095238D02*
X147428571Y-107095238D01*
X146952380Y-105571428D02*
X146952380Y-107571428D01*
X146952380Y-105666666D02*
X146761904Y-105571428D01*
X146380952Y-105571428D01*
X146190476Y-105666666D01*
X146095238Y-105761904D01*
X146000000Y-105952380D01*
X146000000Y-106523809D01*
X146095238Y-106714285D01*
X146190476Y-106809523D01*
X146380952Y-106904761D01*
X146761904Y-106904761D01*
X146952380Y-106809523D01*
X144285714Y-106904761D02*
X144285714Y-105857142D01*
X144380952Y-105666666D01*
X144571428Y-105571428D01*
X144952380Y-105571428D01*
X145142857Y-105666666D01*
X144285714Y-106809523D02*
X144476190Y-106904761D01*
X144952380Y-106904761D01*
X145142857Y-106809523D01*
X145238095Y-106619047D01*
X145238095Y-106428571D01*
X145142857Y-106238095D01*
X144952380Y-106142857D01*
X144476190Y-106142857D01*
X144285714Y-106047619D01*
X142476190Y-106809523D02*
X142666666Y-106904761D01*
X143047619Y-106904761D01*
X143238095Y-106809523D01*
X143333333Y-106714285D01*
X143428571Y-106523809D01*
X143428571Y-105952380D01*
X143333333Y-105761904D01*
X143238095Y-105666666D01*
X143047619Y-105571428D01*
X142666666Y-105571428D01*
X142476190Y-105666666D01*
X141619047Y-106904761D02*
X141619047Y-104904761D01*
X141428571Y-106142857D02*
X140857142Y-106904761D01*
X140857142Y-105571428D02*
X141619047Y-106333333D01*
D10*
%TO.C,U1*%
X205804612Y-81565418D02*
X205804612Y-82374942D01*
X205756993Y-82470180D01*
X205709374Y-82517799D01*
X205614136Y-82565418D01*
X205423660Y-82565418D01*
X205328422Y-82517799D01*
X205280803Y-82470180D01*
X205233184Y-82374942D01*
X205233184Y-81565418D01*
X204233184Y-82565418D02*
X204804612Y-82565418D01*
X204518898Y-82565418D02*
X204518898Y-81565418D01*
X204614136Y-81708276D01*
X204709374Y-81803514D01*
X204804612Y-81851133D01*
X202763660Y-117311609D02*
X202430327Y-117311609D01*
X202287469Y-117835418D02*
X202763660Y-117835418D01*
X202763660Y-116835418D01*
X202287469Y-116835418D01*
X201906517Y-117787799D02*
X201763660Y-117835418D01*
X201525565Y-117835418D01*
X201430327Y-117787799D01*
X201382708Y-117740180D01*
X201335088Y-117644942D01*
X201335088Y-117549704D01*
X201382708Y-117454466D01*
X201430327Y-117406847D01*
X201525565Y-117359228D01*
X201716041Y-117311609D01*
X201811279Y-117263990D01*
X201858898Y-117216371D01*
X201906517Y-117121133D01*
X201906517Y-117025895D01*
X201858898Y-116930657D01*
X201811279Y-116883038D01*
X201716041Y-116835418D01*
X201477946Y-116835418D01*
X201335088Y-116883038D01*
X200906517Y-117835418D02*
X200906517Y-116835418D01*
X200525565Y-116835418D01*
X200430327Y-116883038D01*
X200382708Y-116930657D01*
X200335088Y-117025895D01*
X200335088Y-117168752D01*
X200382708Y-117263990D01*
X200430327Y-117311609D01*
X200525565Y-117359228D01*
X200906517Y-117359228D01*
X200001755Y-116835418D02*
X199382708Y-116835418D01*
X199716041Y-117216371D01*
X199573184Y-117216371D01*
X199477946Y-117263990D01*
X199430327Y-117311609D01*
X199382708Y-117406847D01*
X199382708Y-117644942D01*
X199430327Y-117740180D01*
X199477946Y-117787799D01*
X199573184Y-117835418D01*
X199858898Y-117835418D01*
X199954136Y-117787799D01*
X200001755Y-117740180D01*
X199001755Y-116930657D02*
X198954136Y-116883038D01*
X198858898Y-116835418D01*
X198620803Y-116835418D01*
X198525565Y-116883038D01*
X198477946Y-116930657D01*
X198430327Y-117025895D01*
X198430327Y-117121133D01*
X198477946Y-117263990D01*
X199049374Y-117835418D01*
X198430327Y-117835418D01*
X198001755Y-117454466D02*
X197239850Y-117454466D01*
X196811279Y-117787799D02*
X196668422Y-117835418D01*
X196430327Y-117835418D01*
X196335088Y-117787799D01*
X196287469Y-117740180D01*
X196239850Y-117644942D01*
X196239850Y-117549704D01*
X196287469Y-117454466D01*
X196335088Y-117406847D01*
X196430327Y-117359228D01*
X196620803Y-117311609D01*
X196716041Y-117263990D01*
X196763660Y-117216371D01*
X196811279Y-117121133D01*
X196811279Y-117025895D01*
X196763660Y-116930657D01*
X196716041Y-116883038D01*
X196620803Y-116835418D01*
X196382708Y-116835418D01*
X196239850Y-116883038D01*
X195858898Y-116930657D02*
X195811279Y-116883038D01*
X195716041Y-116835418D01*
X195477946Y-116835418D01*
X195382708Y-116883038D01*
X195335088Y-116930657D01*
X195287469Y-117025895D01*
X195287469Y-117121133D01*
X195335088Y-117263990D01*
X195906517Y-117835418D01*
X195287469Y-117835418D01*
X194858898Y-117454466D02*
X194096993Y-117454466D01*
X193716041Y-116835418D02*
X193477946Y-117835418D01*
X193287469Y-117121133D01*
X193096993Y-117835418D01*
X192858898Y-116835418D01*
X191906517Y-117835418D02*
X192239850Y-117359228D01*
X192477946Y-117835418D02*
X192477946Y-116835418D01*
X192096993Y-116835418D01*
X192001755Y-116883038D01*
X191954136Y-116930657D01*
X191906517Y-117025895D01*
X191906517Y-117168752D01*
X191954136Y-117263990D01*
X192001755Y-117311609D01*
X192096993Y-117359228D01*
X192477946Y-117359228D01*
X191287469Y-116835418D02*
X191096993Y-116835418D01*
X191001755Y-116883038D01*
X190906517Y-116978276D01*
X190858898Y-117168752D01*
X190858898Y-117502085D01*
X190906517Y-117692561D01*
X191001755Y-117787799D01*
X191096993Y-117835418D01*
X191287469Y-117835418D01*
X191382708Y-117787799D01*
X191477946Y-117692561D01*
X191525565Y-117502085D01*
X191525565Y-117168752D01*
X191477946Y-116978276D01*
X191382708Y-116883038D01*
X191287469Y-116835418D01*
X190239850Y-116835418D02*
X190049374Y-116835418D01*
X189954136Y-116883038D01*
X189858898Y-116978276D01*
X189811279Y-117168752D01*
X189811279Y-117502085D01*
X189858898Y-117692561D01*
X189954136Y-117787799D01*
X190049374Y-117835418D01*
X190239850Y-117835418D01*
X190335088Y-117787799D01*
X190430327Y-117692561D01*
X190477946Y-117502085D01*
X190477946Y-117168752D01*
X190430327Y-116978276D01*
X190335088Y-116883038D01*
X190239850Y-116835418D01*
X189382708Y-117835418D02*
X189382708Y-116835418D01*
X189049374Y-117549704D01*
X188716041Y-116835418D01*
X188716041Y-117835418D01*
X188239850Y-117454466D02*
X187477946Y-117454466D01*
X187001755Y-117835418D02*
X187001755Y-116835418D01*
%TO.C,U3*%
X134552380Y-112028095D02*
X135361904Y-112028095D01*
X135457142Y-112075714D01*
X135504761Y-112123333D01*
X135552380Y-112218571D01*
X135552380Y-112409047D01*
X135504761Y-112504285D01*
X135457142Y-112551904D01*
X135361904Y-112599523D01*
X134552380Y-112599523D01*
X134552380Y-112980476D02*
X134552380Y-113599523D01*
X134933333Y-113266190D01*
X134933333Y-113409047D01*
X134980952Y-113504285D01*
X135028571Y-113551904D01*
X135123809Y-113599523D01*
X135361904Y-113599523D01*
X135457142Y-113551904D01*
X135504761Y-113504285D01*
X135552380Y-113409047D01*
X135552380Y-113123333D01*
X135504761Y-113028095D01*
X135457142Y-112980476D01*
X126266666Y-108361428D02*
X126266666Y-108837619D01*
X126552380Y-108266190D02*
X125552380Y-108599523D01*
X126552380Y-108932857D01*
X125552380Y-109170952D02*
X125552380Y-109837619D01*
X126552380Y-109170952D01*
X126552380Y-109837619D01*
X126552380Y-110742380D02*
X126552380Y-110170952D01*
X126552380Y-110456666D02*
X125552380Y-110456666D01*
X125695238Y-110361428D01*
X125790476Y-110266190D01*
X125838095Y-110170952D01*
X126552380Y-111694761D02*
X126552380Y-111123333D01*
X126552380Y-111409047D02*
X125552380Y-111409047D01*
X125695238Y-111313809D01*
X125790476Y-111218571D01*
X125838095Y-111123333D01*
X126552380Y-112647142D02*
X126552380Y-112075714D01*
X126552380Y-112361428D02*
X125552380Y-112361428D01*
X125695238Y-112266190D01*
X125790476Y-112170952D01*
X125838095Y-112075714D01*
X125552380Y-112980476D02*
X125552380Y-113647142D01*
X126552380Y-113218571D01*
X126171428Y-114028095D02*
X126171428Y-114790000D01*
X125552380Y-115170952D02*
X125552380Y-115789999D01*
X125933333Y-115456666D01*
X125933333Y-115599523D01*
X125980952Y-115694761D01*
X126028571Y-115742380D01*
X126123809Y-115789999D01*
X126361904Y-115789999D01*
X126457142Y-115742380D01*
X126504761Y-115694761D01*
X126552380Y-115599523D01*
X126552380Y-115313809D01*
X126504761Y-115218571D01*
X126457142Y-115170952D01*
X126457142Y-116218571D02*
X126504761Y-116266190D01*
X126552380Y-116218571D01*
X126504761Y-116170952D01*
X126457142Y-116218571D01*
X126552380Y-116218571D01*
X125552380Y-116599523D02*
X125552380Y-117218571D01*
X125933333Y-116885238D01*
X125933333Y-117028095D01*
X125980952Y-117123333D01*
X126028571Y-117170952D01*
X126123809Y-117218571D01*
X126361904Y-117218571D01*
X126457142Y-117170952D01*
X126504761Y-117123333D01*
X126552380Y-117028095D01*
X126552380Y-116742380D01*
X126504761Y-116647142D01*
X126457142Y-116599523D01*
D12*
%TO.C,C5*%
X140261252Y-120735000D02*
X139738748Y-120735000D01*
X140261252Y-119265000D02*
X139738748Y-119265000D01*
%TO.C,EN_Pull-up1*%
X198577064Y-81645000D02*
X198122936Y-81645000D01*
X198577064Y-80175000D02*
X198122936Y-80175000D01*
%TO.C,U4*%
X164260000Y-110880000D02*
X163000000Y-110880000D01*
X157440000Y-110880000D02*
X158700000Y-110880000D01*
X157440000Y-114640000D02*
X157440000Y-110880000D01*
X164260000Y-116890000D02*
X164260000Y-110880000D01*
%TO.C,C2*%
X137735000Y-110690652D02*
X137735000Y-111213156D01*
X136265000Y-110690652D02*
X136265000Y-111213156D01*
%TO.C,R14*%
X147197064Y-115715000D02*
X146742936Y-115715000D01*
X147197064Y-114245000D02*
X146742936Y-114245000D01*
%TO.C,C3*%
X142818426Y-110708664D02*
X142818426Y-111231168D01*
X141348426Y-110708664D02*
X141348426Y-111231168D01*
%TO.C,SW_PWR1*%
X102161570Y-81365000D02*
G75*
G03*
X102161570Y-81365000I-336285J0D01*
G01*
X106397285Y-81365000D02*
G75*
G03*
X106397285Y-81365000I-336285J0D01*
G01*
X111465000Y-75785000D02*
X88465000Y-75785000D01*
X88465000Y-75785000D02*
X88465000Y-89785000D01*
X88465000Y-89785000D02*
X111465000Y-89785000D01*
X111465000Y-89785000D02*
X111465000Y-75785000D01*
X107331000Y-81365000D02*
X106471339Y-81362160D01*
X100727000Y-81365000D02*
X101489000Y-81365000D01*
X105731150Y-81145797D02*
X102505000Y-79333000D01*
%TO.C,R4*%
X216835000Y-98267064D02*
X216835000Y-97812936D01*
X215365000Y-98267064D02*
X215365000Y-97812936D01*
%TO.C,J1*%
X145300000Y-128920000D02*
X145300000Y-130920000D01*
X154700000Y-134720000D02*
X145300000Y-134720000D01*
X145300000Y-132820000D02*
X145300000Y-134720000D01*
X154700000Y-128920000D02*
X154700000Y-130920000D01*
X154700000Y-132820000D02*
X154700000Y-134720000D01*
%TO.C,BT1*%
X179000000Y-81000000D02*
X121000000Y-81000000D01*
X121000000Y-81000000D02*
X121000000Y-129000000D01*
X121000000Y-129000000D02*
X179000000Y-129000000D01*
X179000000Y-129000000D02*
X179000000Y-81000000D01*
D13*
%TO.C,U1*%
X209067708Y-91498038D02*
G75*
G03*
X209067708Y-91498038I-100000J0D01*
G01*
D14*
X189467708Y-114998038D02*
X189467708Y-114768038D01*
X189467708Y-90298038D02*
X207467708Y-90298038D01*
X207467708Y-83998038D02*
X207467708Y-90298038D01*
X189467708Y-83998038D02*
X207467708Y-83998038D01*
X189467708Y-90298038D02*
X189467708Y-83998038D01*
X190947708Y-114998038D02*
X189467708Y-114998038D01*
X207467708Y-114998038D02*
X205987708Y-114998038D01*
X207467708Y-114998038D02*
X207467708Y-114768038D01*
X189467708Y-90728038D02*
X189467708Y-90298038D01*
X207467708Y-90298038D02*
X207467708Y-90728038D01*
D12*
%TO.C,U3*%
X127190000Y-114640000D02*
X127190000Y-110880000D01*
X134010000Y-110880000D02*
X132750000Y-110880000D01*
X127190000Y-110880000D02*
X128450000Y-110880000D01*
X134010000Y-116890000D02*
X134010000Y-110880000D01*
%TD*%
M02*
