M48
; DRILL file {KiCad (6.0.4)} date Sun Nov  6 13:58:27 2022
; FORMAT={-:-/ absolute / inch / decimal}
; #@! TF.CreationDate,2022-11-06T13:58:27+01:00
; #@! TF.GenerationSoftware,Kicad,Pcbnew,(6.0.4)
; #@! TF.FileFunction,MixedPlating,1,2
FMAT,2
INCH
; #@! TA.AperFunction,Plated,PTH,ViaDrill
T1C0.0157
; #@! TA.AperFunction,Plated,PTH,ComponentDrill
T2C0.0197
; #@! TA.AperFunction,Plated,PTH,ComponentDrill
T3C0.0236
; #@! TA.AperFunction,Plated,PTH,ComponentDrill
T4C0.0256
; #@! TA.AperFunction,Plated,PTH,ComponentDrill
T5C0.0300
; #@! TA.AperFunction,Plated,PTH,ComponentDrill
T6C0.0394
; #@! TA.AperFunction,Plated,PTH,ComponentDrill
T7C0.0492
; #@! TA.AperFunction,Plated,PTH,ComponentDrill
T8C0.0709
; #@! TA.AperFunction,Plated,PTH,ComponentDrill
T9C0.1181
; #@! TA.AperFunction,Plated,PTH,ComponentDrill
T10C0.1260
; #@! TA.AperFunction,NonPlated,NPTH,ComponentDrill
T11C0.0256
%
G90
G05
T1
X4.4476Y-4.237
X4.5387Y-4.1851
X5.1575Y-4.685
X5.2756Y-5.1181
X5.7861Y-4.7488
X6.1417Y-4.8031
X6.2205Y-4.6457
X6.2205Y-4.7638
X6.3386Y-4.6457
X6.3386Y-4.7638
X6.4173Y-4.4488
X6.4961Y-5.1181
X6.7323Y-4.2126
X6.8728Y-4.685
X6.8898Y-4.7244
X7.0079Y-4.0157
X7.2833Y-3.6462
X7.3607Y-3.6429
X7.4803Y-3.5039
X7.5197Y-4.6457
X7.5833Y-3.5282
X7.5984Y-3.6513
X7.6472Y-4.4528
X7.6789Y-4.5733
X7.6804Y-4.9844
X7.6808Y-5.0987
X7.6959Y-4.4286
X7.7193Y-4.6032
X7.7291Y-4.9822
X7.7559Y-4.1339
X7.7559Y-5.1181
X7.7824Y-4.4302
X7.8346Y-4.2913
X7.8346Y-4.4488
X7.874Y-4.1339
X7.8966Y-4.2959
X7.9134Y-3.5433
X7.9134Y-5.0394
X7.9169Y-4.4314
X7.9398Y-4.5927
X7.9528Y-4.9213
X7.9806Y-4.0813
X7.9832Y-5.1496
X8.0186Y-4.1968
X8.0188Y-4.2388
X8.0709Y-3.622
X8.0709Y-3.7795
X8.073Y-4.1403
X8.0855Y-3.9765
X8.1494Y-4.7613
X8.2283Y-4.6063
X8.2353Y-3.6506
X8.2429Y-3.8387
X8.2432Y-4.1086
X8.2677Y-4.9055
X8.3071Y-3.7795
X8.3071Y-4.3307
X8.3071Y-4.6457
X8.3552Y-4.1073
X8.4646Y-4.3307
X8.4809Y-4.114
X8.5433Y-4.2264
X8.5476Y-4.6335
X8.7927Y-4.2913
T2
X3.0551Y-3.1496
X3.0551Y-5.1181
X3.0828Y-3.0828
X3.0828Y-3.2164
X3.0828Y-5.0513
X3.0828Y-5.1849
X3.1496Y-3.0551
X3.1496Y-3.2441
X3.1496Y-5.0236
X3.1496Y-5.2126
X3.2164Y-3.0828
X3.2164Y-3.2164
X3.2164Y-5.0513
X3.2164Y-5.1849
X3.2441Y-3.1496
X3.2441Y-5.1181
X8.5669Y-3.1496
X8.5669Y-5.1181
X8.5946Y-3.0828
X8.5946Y-3.2164
X8.5946Y-5.0513
X8.5946Y-5.1849
X8.6614Y-3.0551
X8.6614Y-3.2441
X8.6614Y-5.0236
X8.6614Y-5.2126
X8.7282Y-3.0828
X8.7282Y-3.2164
X8.7282Y-5.0513
X8.7282Y-5.1849
X8.7559Y-3.1496
X8.7559Y-5.1181
T4
X7.5787Y-3.1969
X8.6697Y-4.3583
X8.6697Y-4.4083
X8.6697Y-4.4583
X8.6697Y-4.5083
X8.6697Y-4.5583
X8.6697Y-4.6083
X8.715Y-4.8051
T5
X3.9356Y-3.2033
X4.2474Y-3.2033
X4.5858Y-3.637
X4.5858Y-3.737
X4.5858Y-3.837
X4.5858Y-3.937
X4.5858Y-4.037
X4.5858Y-4.137
X4.5858Y-4.237
T6
X3.0709Y-3.5433
X3.3701Y-3.5433
X4.8425Y-5.1181
X4.9409Y-5.1181
X5.0394Y-5.1181
X6.7717Y-5.1181
X6.8701Y-5.1181
X6.9685Y-5.1181
X8.4252Y-3.5433
X8.7244Y-3.5433
T7
X4.8654Y-4.1339
X4.8654Y-4.6339
T9
X4.5669Y-3.1693
X4.5669Y-4.7047
X7.2441Y-3.1693
X7.2441Y-4.7047
T10
X3.1496Y-3.1496
X3.1496Y-5.1181
X8.6614Y-3.1496
X8.6614Y-5.1181
T11
X5.7917Y-5.048
X6.0193Y-5.048
T3
G00X5.7354Y-5.0488
M15
G01X5.7354Y-5.0055
M16
G05
G00X5.7354Y-5.2035
M15
G01X5.7354Y-5.1799
M16
G05
G00X6.0756Y-5.0488
M15
G01X6.0756Y-5.0055
M16
G05
G00X6.0756Y-5.2035
M15
G01X6.0756Y-5.1799
M16
G05
T8
G00X4.7441Y-4.9823
M15
G01X4.7441Y-4.9941
M16
G05
G00X5.1378Y-4.9823
M15
G01X5.1378Y-4.9941
M16
G05
G00X6.6732Y-4.9823
M15
G01X6.6732Y-4.9941
M16
G05
G00X7.0669Y-4.9823
M15
G01X7.0669Y-4.9941
M16
G05
T0
M30
